<?xml version="1.0"?>
<svg xmlns="http://www.w3.org/2000/svg" viewBox="0 0 64 64" width="512" height="512"><g id="Car_Lift" data-name="Car Lift"><path d="M59.493,17.735l-9.86-1.643L43.02,4.52A5.009,5.009,0,0,0,38.679,2H20.472A4.973,4.973,0,0,0,16,4.764l-5.655,11.31-5.717.715A3,3,0,0,0,2,19.766V31a3,3,0,0,0,3,3H8.08a6.975,6.975,0,0,0,2.031,4H5a1,1,0,0,0-1,1v4a1,1,0,0,0,1,1h7.184A2.926,2.926,0,0,0,13.2,47.385L4.294,56.292A.994.994,0,0,0,4,57v4a1,1,0,0,0,1,1H59a1,1,0,0,0,1-1V57a.994.994,0,0,0-.294-.708L50.8,47.385A2.926,2.926,0,0,0,51.816,44H59a1,1,0,0,0,1-1V39a1,1,0,0,0-1-1H53.889a6.975,6.975,0,0,0,2.031-4H59a3,3,0,0,0,3-3V20.694A2.991,2.991,0,0,0,59.493,17.735ZM34,8h8.7l4.572,8H34Zm-2,8H18.348L20.74,8H32ZM4,31V30H7V28H4V19.766a1,1,0,0,1,.876-.993l6.248-.781a1,1,0,0,0,.771-.545L17.789,5.658A2.983,2.983,0,0,1,20.472,4H38.679a3,3,0,0,1,2.6,1.512L41.562,6H20.74a1.99,1.99,0,0,0-1.908,1.422l-2.4,7.991A1.994,1.994,0,0,0,18.34,18H32V32H21.92A6.991,6.991,0,0,0,8.08,32H5A1,1,0,0,1,4,31Zm6,2a5,5,0,1,1,5,5A5.006,5.006,0,0,1,10,33Zm6,12a1,1,0,1,1-1-1A1,1,0,0,1,16,45Zm6.586,11H7.414L15,48.414ZM58,60H6V58H58ZM41.414,56,49,48.414,56.586,56ZM50,45a1,1,0,1,1-1-1A1,1,0,0,1,50,45Zm8-5v2H38v2h8.184A2.926,2.926,0,0,0,47.2,47.385L38.586,56H25.414L16.8,47.385A2.926,2.926,0,0,0,17.816,44H25V42H6V40H25V38H19.889a6.975,6.975,0,0,0,2.031-4H42.08a6.975,6.975,0,0,0,2.031,4H38v2Zm-9-2a5,5,0,1,1,5-5A5.006,5.006,0,0,1,49,38Zm10-6H55.92a6.991,6.991,0,0,0-13.84,0H34V18H48.918l10.247,1.708a.989.989,0,0,1,.542.292H56a2,2,0,0,0-2,2v2a2,2,0,0,0,2,2h4v2H57v2h3v1A1,1,0,0,1,59,32Zm1-10v2H56V22Z"/><rect x="36" y="20" width="4" height="2"/><rect x="19" y="20" width="4" height="2"/><rect x="14" y="32" width="2" height="2"/><rect x="48" y="32" width="2" height="2"/><path d="M36,42a1,1,0,0,0,.707-1.707l-4-4a1,1,0,0,0-1.414,0l-4,4A1,1,0,0,0,28,42h1v6H28a1,1,0,0,0-.707,1.707l4,4a1,1,0,0,0,1.414,0l4-4A1,1,0,0,0,36,48H35V42Zm-2.351,7.937L32,51.586l-1.649-1.649A1,1,0,0,0,31,49V41a1,1,0,0,0-.649-.937L32,38.414l1.649,1.649A1,1,0,0,0,33,41v8A1,1,0,0,0,33.649,49.937Z"/></g></svg>
