<?xml version="1.0" encoding="iso-8859-1"?>
<!-- Generator: Adobe Illustrator 19.0.0, SVG Export Plug-In . SVG Version: 6.00 Build 0)  -->
<svg version="1.1" id="Capa_1" xmlns="http://www.w3.org/2000/svg" xmlns:xlink="http://www.w3.org/1999/xlink" x="0px" y="0px"
	 viewBox="0 0 500.944 500.944" style="enable-background:new 0 0 500.944 500.944;" xml:space="preserve">
<g>
	<g>
		<path d="M493.8,307.928l-33.664-72.92c-9.12-19.768-29.08-32.536-50.848-32.536H226.504c-19.232,0-37.312,7.488-50.904,21.088
			l-58.912,58.912H72c-39.704,0-72,32.304-72,72v56c0,13.232,10.768,24,24,24h16.472c3.992,35.944,34.528,64,71.528,64
			s67.536-28.056,71.528-64h128.944c3.992,35.944,34.528,64,71.528,64s67.536-28.056,71.528-64H472c13.232,0,24-10.768,24-24
			v-92.488C496,314.528,495.232,311.056,493.8,307.928z M112,482.472c-30.872,0-56-25.12-56-56s25.128-56,56-56s56,25.12,56,56
			S142.872,482.472,112,482.472z M384,482.472c-30.872,0-56-25.12-56-56s25.128-56,56-56s56,25.12,56,56
			S414.872,482.472,384,482.472z M480,330.472h-16v16h16v16h-16v16h16v32c0,4.408-3.584,8-8,8h-16.472
			c-3.992-35.944-34.528-64-71.528-64s-67.536,28.056-71.528,64H296v-59.72l17.176-11.456l26.088,8.696l19.392-29.088l-13.312-8.872
			l-12.608,18.912l-21.912-7.304L296,339.528v-17.056h-16v44.184l-29.032-11.616l-5.936,14.856l7.688,3.072l-7.456,11.184
			l-30.832-15.424l-20.08,20.08l11.312,11.312l11.92-11.92l33.168,16.576l17.152-25.736L280,383.888v34.584h-96.472
			c-3.992-35.944-34.528-64-71.528-64s-67.536,28.056-71.528,64H24c-4.416,0-8-3.592-8-8v-56c0-30.88,25.128-56,56-56h51.312
			l63.6-63.6c10.576-10.576,24.632-16.4,39.592-16.4h182.784c15.544,0,29.8,9.12,36.312,23.24l33.664,72.92
			c0.488,1.04,0.736,2.2,0.736,3.352V330.472z"/>
	</g>
</g>
<g>
	<g>
		<path d="M32,354.472h16c0-13.232,10.768-24,24-24v-16C49.944,314.472,32,332.416,32,354.472z"/>
	</g>
</g>
<g>
	<g>
		<rect x="216" y="322.472" width="32" height="16"/>
	</g>
</g>
<g>
	<g>
		<path d="M112,394.472c-17.648,0-32,14.352-32,32s14.352,32,32,32s32-14.352,32-32S129.648,394.472,112,394.472z M112,442.472
			c-8.824,0-16-7.176-16-16c0-8.824,7.176-16,16-16c8.824,0,16,7.176,16,16C128,435.296,120.824,442.472,112,442.472z"/>
	</g>
</g>
<g>
	<g>
		<path d="M384,394.472c-17.648,0-32,14.352-32,32s14.352,32,32,32s32-14.352,32-32S401.648,394.472,384,394.472z M384,442.472
			c-8.824,0-16-7.176-16-16c0-8.824,7.176-16,16-16c8.824,0,16,7.176,16,16C400,435.296,392.824,442.472,384,442.472z"/>
	</g>
</g>
<g>
	<g>
		<path d="M400,306.472h57.88l-26.808-58.048c-3.904-8.472-12.448-13.952-21.784-13.952H226.504
			c-10.528,0-20.832,4.272-28.28,11.712l-60.288,60.288H384v-16H176.56l32.976-32.976c4.464-4.464,10.648-7.024,16.968-7.024
			h182.784c3.112,0,5.96,1.824,7.256,4.648l16.32,35.352H400V306.472z"/>
	</g>
</g>
<g>
	<g>
		<path d="M432,58.472h68.944l-24-48h-64.256l-24,24H174.456c-12.664,0-25.096-4.36-34.984-12.272L114.808,2.472H0v144h114.808
			l24.664-19.728c9.888-7.912,22.32-12.272,34.984-12.272h214.232l24,24h64.256l24-48H432V58.472z M72,130.472H16v-16h40v-16H16v-16
			h40v-16H16v-16h40v-16H16v-16h56V130.472z M104,130.472H88v-112h16V130.472z M475.056,106.472l-8,16h-47.744l-24-24H174.456
			c-16.288,0-32.256,5.6-44.984,15.776L120,121.824V27.12l9.472,7.576c12.72,10.176,28.696,15.776,44.984,15.776h220.856l24-24
			h47.744l8,16H432c-8.824,0-16,7.176-16,16v32c0,8.824,7.176,16,16,16H475.056z"/>
	</g>
</g>
<g>
	<g>
		<rect x="136" y="66.472" width="40" height="16"/>
	</g>
</g>
<g>
	<g>
		<rect x="192" y="66.472" width="208" height="16"/>
	</g>
</g>
<g>
	<g>
		<path d="M74.784,215.208L40,154.344L5.216,215.216C1.808,221.192,0,227.992,0,234.864c0,21.84,17.768,39.608,39.608,39.608h0.784
			c21.84,0,39.608-17.768,39.608-39.608C80,227.992,78.192,221.192,74.784,215.208z M40.392,258.472h-0.784
			C26.592,258.472,16,247.88,16,234.864c0-4.096,1.08-8.152,3.112-11.712L40,186.6l20.888,36.552
			c2.032,3.56,3.112,7.616,3.112,11.712C64,247.88,53.408,258.472,40.392,258.472z"/>
	</g>
</g>
<g>
</g>
<g>
</g>
<g>
</g>
<g>
</g>
<g>
</g>
<g>
</g>
<g>
</g>
<g>
</g>
<g>
</g>
<g>
</g>
<g>
</g>
<g>
</g>
<g>
</g>
<g>
</g>
<g>
</g>
</svg>
